<svg xmlns="http://www.w3.org/2000/svg" viewBox="0 0 1482.64 323.46"><defs><style>.cls-1{fill:#2d2d27;}.cls-2{fill:#efede8;}.cls-3,.cls-4{fill:none;}.cls-3{stroke:#2f2f26;stroke-miterlimit:10;stroke-width:2px;}.cls-5{fill:#e8e5e3;}.cls-6{fill:#2f2f26;}</style></defs><g id="Final_colored" data-name="Final colored"><path class="cls-1" d="M865.9,262.36c-15-29.47-42.82-40.72-73.57-28.31v0C762,246.32,739.25,248.69,722,229c-1.6-1.82-2.6-.63-1.37,1.79,15,29.46,42.83,40.72,73.57,28.3v0c30.38-12.25,53.08-14.62,70.33,5.06C866.13,266,867.14,264.78,865.9,262.36Z"/><path class="cls-1" d="M920.8,315,838.53,113a.42.42,0,0,0-.38-.25H836a.4.4,0,0,0-.38.26l-13.26,32.57h0l-35.53,87.2,3.15-1.56a.38.38,0,0,0,.2-.21l33.12-81.28a.41.41,0,0,1,.75,0L884.45,298c5.21,13.65-8.76,8.79-10.49,17.24,0,.18.07.36.21.36h46.26A.4.4,0,0,0,920.8,315Z"/><path class="cls-1" d="M794.25,294.83C789.67,296,784,312.43,772,313H692.91a.41.41,0,0,1-.41-.41V113.16a.4.4,0,0,0-.4-.41H646.86c-.21,0-.33.36-.17.55,2.33,2.77,16.4,2.37,16.4,10.06V315.19a.4.4,0,0,0,.41.4H786.57l8.24-20.24C794.93,295.1,794.57,294.75,794.25,294.83Z"/><path class="cls-1" d="M630,112.75h-18.6L557.36,225.38a.41.41,0,0,1-.73,0L502.89,113a.41.41,0,0,0-.37-.23H459c-.21,0-.32.36-.16.55,2.32,2.77,15.59,1.76,19.31,9.5l51.13,106.93a4.1,4.1,0,0,1,.39,1.75v83.71a.4.4,0,0,0,.41.4h46.47c.13,0,.24-.18.2-.36-1.75-8.57-17.66-3.44-17.66-17.81v-65.9a4.11,4.11,0,0,1,.39-1.76l52.83-110.1c2.65-5.54,15.77-4.74,17.83-6.54A.21.21,0,0,0,630,112.75Z"/><path class="cls-1" d="M209.69,297.41v-174c0-7.69,14.07-7.29,16.4-10.06.16-.19,0-.55-.17-.55H180.41a.41.41,0,0,0-.38.25L112.67,278.41a.41.41,0,0,1-.75,0L44.56,113a.41.41,0,0,0-.38-.25H.24c-.21,0-.32.36-.17.55,2.33,2.77,16.4,2.37,16.4,10.06V315.19a.41.41,0,0,0,.41.4h1.83a.4.4,0,0,0,.4-.4V124.81a.41.41,0,0,1,.78-.15L97.55,315.34a.4.4,0,0,0,.37.25h2a.43.43,0,0,0,.38-.25l13.34-32.77h0L179.49,120.8a.41.41,0,0,1,.79.15V315.19a.4.4,0,0,0,.4.4h46.45c.14,0,.25-.18.21-.36C225.59,306.65,209.69,311.78,209.69,297.41Z"/><path class="cls-1" d="M1174.83,112.75h-75.06c-.21,0-.33.36-.17.55,2.33,2.77,16.4,2.37,16.4,10.06V297.42h0c0,14.37-15.9,9.24-17.65,17.81,0,.18.07.36.21.36h76.27c56.78,0,86.2-38.36,86.2-101.42S1231.61,112.75,1174.83,112.75Zm0,200.21h-29a.42.42,0,0,1-.41-.41V115.79a.41.41,0,0,1,.41-.4h29c39.94,0,56.78,35.72,56.78,98.78S1214.77,313,1174.83,313Z"/><path class="cls-1" d="M1082.51,112.75H1064a.4.4,0,0,0-.4.41v193.9a.41.41,0,0,1-.79.15L983.76,113a.4.4,0,0,0-.37-.25H939.44c-.2,0-.32.36-.16.55,2.32,2.77,16.4,2.37,16.4,10.06V297.41c0,14.37-15.9,9.24-17.65,17.81,0,.18.07.36.2.36h19.68a.41.41,0,0,0,.41-.4V124.81a.41.41,0,0,1,.78-.15l77.65,190.68a.41.41,0,0,0,.38.25h28.74a.4.4,0,0,0,.4-.4V123.36c0-7.69,14.08-7.29,16.4-10.06C1082.83,113.11,1082.71,112.75,1082.51,112.75Z"/><path class="cls-1" d="M494.39,307.06c-32.78,5.18-53-15.55-72.62-52.13h0v0c-6.74-12.56-15.35-22.18-25.31-28.77,26.1-7.45,43.73-24.69,43.73-54.49,0-40.41-34.67-58.9-78.8-58.9h-75c-.21,0-.32.36-.17.55,2.33,2.77,16.4,2.37,16.4,10.06V297.41c0,14.37-15.9,9.24-17.65,17.81,0,.18.07.36.21.36h46.45a.4.4,0,0,0,.41-.4V231a.4.4,0,0,1,.4-.4H358c13.09,0,29.06,23.74,41.67,47.21l0,0c19.88,37,56.1,48.65,94.63,32.12C497.44,308.55,497.42,306.58,494.39,307.06ZM332.05,227.51V115.79a.4.4,0,0,1,.4-.4h29c27.6,0,49.39,20.4,49.39,56.26,0,37.27-21.79,56.27-49.38,56.27h-29A.4.4,0,0,1,332.05,227.51Z"/><path class="cls-1" d="M353.55,233.23v0s-.09,0-.09,0Z"/><rect class="cls-1" x="245.19" y="291.59" width="23.43" height="23.43" rx="1.98" transform="translate(-139.22 270.49) rotate(-45)"/><path class="cls-2" d="M1217.89,312.55c.57-5.17-.72-7.34-.72-7.34-52.11,7.62-24.35-21.09-17.3-54.81,3.17-14.79-23.23-26.81-6.47-59.58,39.79-58.68,89.48-44.8,108.47-49,16.1-19.64,26.08-8.77,38.53-20.06s48.23-12.51,48.23-12.51C1423.33,98.73,1381.46,1.1,1445.22,4c12.47-.49,16.83-.16,17.66,2.64s-3.52,13.08-7.17,13.71C1450,21.81,1429.14,5.83,1430,60.58c-2.61,14.66,9.51,36.11,6.08,45.3s5.47,11.27,5.47,11.27-9.37,3.79-13.36,3.18c-15.56,7.65-20.61,29.34-20.61,29.34l10.38,1.58c5.48,3.05,16.9,24.65-3.32,17.15-5-1.32-6.48,1.15-32.29,25.67-38.65,33-15.31,68.47-.11,104.21,34.47,29.9-11.26,22-34.72,21.85.5-14.68-12.9-4.23-21.83-12-4.65-25.58,5.67-43.78-10.1-64.16-41.16,16-51.73,13.21-62.66,17.06,0,0-2-.17,1.85-8.62,1.94-4.25-6.71,0-8.59,9.47-1.64,8.2,4.94,18.36,5,28.75.06,6,14.45,21.27,9,24.75-7.53,4.8-42.94,2.35-42.38-2.81Z"/><path class="cls-3" d="M1217.89,312.55c.57-5.17-.72-7.34-.72-7.34-52.11,7.62-24.35-21.09-17.3-54.81,3.17-14.79-23.23-26.81-6.47-59.58,39.79-58.68,89.48-44.8,108.47-49,16.1-19.64,26.08-8.77,38.53-20.06s48.23-12.51,48.23-12.51C1423.33,98.73,1381.46,1.1,1445.22,4c12.47-.49,16.83-.16,17.66,2.64s-3.52,13.08-7.17,13.71C1450,21.81,1429.14,5.83,1430,60.58c-2.61,14.66,9.51,36.11,6.08,45.3s5.47,11.27,5.47,11.27-9.37,3.79-13.36,3.18c-15.56,7.65-20.61,29.34-20.61,29.34l10.38,1.58c5.48,3.05,16.9,24.65-3.32,17.15-5-1.32-6.48,1.15-32.29,25.67-38.65,33-15.31,68.47-.11,104.21,34.47,29.9-11.26,22-34.72,21.85.5-14.68-12.9-4.23-21.83-12-4.65-25.58,5.67-43.78-10.1-64.16-41.16,16-51.73,13.21-62.66,17.06,0,0-2-.17,1.85-8.62,1.94-4.25-6.71,0-8.59,9.47-1.64,8.2,4.94,18.36,5,28.75.06,6,14.45,21.27,9,24.75C1252.74,320.16,1217.33,317.71,1217.89,312.55Z"/><path class="cls-4" d="M1456.77,130l0,0,0,0m.14-17.45c4.52,5.91-7.55,15.62-10.52,20.88,0,0,0,0,0,0l0,0h0a20.81,20.81,0,0,1-3.82,3.91h0l-.83.62,0,0-.19.16,0,0a55.7,55.7,0,0,1-15.43,8.25l.07,0c-5.68,1.69-23.19,8.26-16-3.71a.08.08,0,0,0,0,0c1.66-4.82,15.76-26.25,21-22.2,8.74,1.39,16.37-11.65,25.69-7.88Zm23.94-9c-.19-1.26-.78-3-2.18-3.29h0c-4.72-.59-8.54,3.17-12.35,5.42l0,0-.92.7a.1.1,0,0,0,0,0c-6.21,6.3-15.24,3.64-21.93,8.88l0,0-.34.25c-1-.94-3.48.43-4.82-.54l.08,0c-3-1-1-4.95-1.07-7.25.34-4.29-.8-8.55-1.3-12.78,0,0,0,.08,0,.12-3.89-19.51-11.79-62.52,6.3-75.75,4.77-1.25,10.74,4.2,14.79,0-9.52,4.79-15-8.21-22.48,7.69h0l0,.07a0,0,0,0,0,0,0,84.25,84.25,0,0,0-3.47,17.89v-.11c-2.09,16.67.36,33.37,3.91,49.63l0-.12c.43,4.74,1.74,9.46,1.37,14.23-1.09,4.81-.3,8.19,5.44,7.35h-.1c.29,0,.58-.06.87-.08-3.36,2.2-7.15,4.24-11.22,4.52-5.4-6-23.14,21.35-23.4,27-1.35,4.35,7.44,2.13,9.79,2-1.2,1.57,1.54,2.45,2.43,3.34l0,0a27.25,27.25,0,0,1,2,2.06h0c2.58,2.51,4.58,5.62,4.84,9.29h0s0,0,0,.06a.06.06,0,0,1,0,0c.95,4-2.1,7.12-6,5l.07,0c-6.1-2.34-9.21-8.44-14.93-11.26l.06,0a17.69,17.69,0,0,0-3.69-1c8.29-2.45,14.43,5,20.43,9.24l0,0c.8.57,4,.93,3.59-.2-5.75,2.62-9.79-10.59-21.61-10-1-.32-3.91.05-2.85,1.62,6,.69,9.37,6,13.81,9.48,5.17,3.35,12.56,6,11.43-3.39h0s0,0,0,0h0v0h0a8.91,8.91,0,0,0-.59-2.57v0s0,0,0-.05v0c-3.18-11.4-17.61-9,.2-14.32l-.06,0c13.1-4.22,22.43-14.54,29.41-26v0c2-2.33,4-7.5.07-8.9,3.56-.88,6.58-2.92,9.45-5.09,0,0,0,0,0,0,3.47-2.26,14-10.81,14.49-2.21-6.31,13.73-20.33,24.42-33.7,30.45,2.89.31,7.49-3.14,10-4.79h0l0,0h0l.09-.07c8.31-5.65,22-16.28,24.08-26.41Z"/><path class="cls-3" d="M1456.77,130l0,0Zm.14-17.45c4.52,5.91-7.55,15.62-10.52,20.88,0,0,0,0,0,0l0,0h0a20.81,20.81,0,0,1-3.82,3.91h0l-.83.62,0,0-.19.16,0,0a55.7,55.7,0,0,1-15.43,8.25l.07,0c-5.68,1.69-23.19,8.26-16-3.71a.08.08,0,0,0,0,0c1.66-4.82,15.76-26.25,21-22.2C1440,121.85,1447.59,108.81,1456.91,112.58Zm23.94-9c-.19-1.26-.78-3-2.18-3.29h0c-4.72-.59-8.54,3.17-12.35,5.42l0,0-.92.7a.1.1,0,0,0,0,0c-6.21,6.3-15.24,3.64-21.93,8.88l0,0-.34.25c-1-.94-3.48.43-4.82-.54l.08,0c-3-1-1-4.95-1.07-7.25.34-4.29-.8-8.55-1.3-12.78,0,0,0,.08,0,.12-3.89-19.51-11.79-62.52,6.3-75.75,4.77-1.25,10.74,4.2,14.79,0-9.52,4.79-15-8.21-22.48,7.69h0l0,.07a0,0,0,0,0,0,0,84.25,84.25,0,0,0-3.47,17.89v-.11c-2.09,16.67.36,33.37,3.91,49.63l0-.12c.43,4.74,1.74,9.46,1.37,14.23-1.09,4.81-.3,8.19,5.44,7.35h-.1c.29,0,.58-.06.87-.08-3.36,2.2-7.15,4.24-11.22,4.52-5.4-6-23.14,21.35-23.4,27-1.35,4.35,7.44,2.13,9.79,2-1.2,1.57,1.54,2.45,2.43,3.34l0,0a27.25,27.25,0,0,1,2,2.06h0c2.58,2.51,4.58,5.62,4.84,9.29h0s0,0,0,.06a.06.06,0,0,1,0,0c.95,4-2.1,7.12-6,5l.07,0c-6.1-2.34-9.21-8.44-14.93-11.26l.06,0a17.69,17.69,0,0,0-3.69-1c8.29-2.45,14.43,5,20.43,9.24,0,0,4,.91,3.55-.22-5.75,2.62-9.79-10.59-21.61-10-1-.32-3.91.05-2.85,1.62,6,.69,9.37,6,13.81,9.48,5.17,3.35,12.56,6,11.43-3.39h0v0h0v0h0c-.14-.87-.59-2.55-.59-2.55s0,0,0-.05v0c-3.18-11.4-17.61-9,.2-14.32l-.06,0c13.1-4.22,22.43-14.54,29.41-26v0c2-2.33,4-7.5.07-8.9,3.56-.88,6.58-2.92,9.45-5.09,0,0,0,0,0,0,3.47-2.26,14-10.81,14.49-2.21-6.31,13.73-20.33,24.42-33.7,30.45,2.89.31,7.49-3.14,10-4.79h0l0,0h0l.09-.07C1465.08,124.38,1478.72,113.75,1480.85,103.62Z"/><path class="cls-4" d="M1460.91,14.27l0,.07a.25.25,0,0,1,0-.07"/><path class="cls-3" d="M1460.91,14.27l0,.07A.25.25,0,0,1,1460.91,14.27Z"/><path class="cls-4" d="M1459.16,16.4l0,0a0,0,0,0,1,0,0"/><path class="cls-3" d="M1459.16,16.4l0,0A0,0,0,0,1,1459.16,16.4Z"/><path class="cls-4" d="M1459.25,16.24a0,0,0,0,0,0,0h0"/><path class="cls-3" d="M1459.25,16.24a0,0,0,0,0,0,0Z"/><path class="cls-4" d="M1407,38.65v0a.06.06,0,0,0,0,0"/><path class="cls-3" d="M1407,38.65v0A.06.06,0,0,0,1407,38.65Z"/><path class="cls-4" d="M1441,4.28h0"/><path class="cls-3" d="M1441,4.28h0Z"/><path class="cls-4" d="M1343.29,156.36l0,0,0,0"/><path class="cls-3" d="M1343.29,156.36l0,0Z"/><path class="cls-4" d="M1303.63,141.53l0,.06,0-.06"/><path class="cls-3" d="M1303.63,141.53l0,.06Z"/><path class="cls-4" d="M1441.37,4.63h0"/><path class="cls-3" d="M1441.37,4.63h0Z"/><path class="cls-4" d="M1394.18,105.83l0,0,0,0"/><path class="cls-3" d="M1394.18,105.83l0,0Z"/><path class="cls-5" d="M1303.26,142.86c-7.7,24.59-7.14,41.44,22.4,42.75a80.92,80.92,0,0,0,21.59,4.21h0c.77.11,1.54.25,2.32.35h-.1c25,1,3.12-25.73-5.17-33.44l0,.06c-2.34-2.16-13.7-23.06-11.12-8.89,1.13.86-.07-1.79,0-2.28-.4-7.5,8.84,10.5,10.53,11.31l0-.06c.16.22.33.43.5.65l0,0,0,.06h0c7.39,7,28,31,6.72,32.09h.1a274.64,274.64,0,0,1-43.84-9h0c-12.62-4-6-37.8,1.07-45.5,6.37-6,15.43-6.75,23.52-8.75,6.08-2.19,10.89-7,16.87-9.42h0a77.7,77.7,0,0,1,26.75-6.79c6.64-.74,14.25.25,19.74-4.24l-.08.06c22-15.34-6.54-102.22,46-101.68h0c4.13,1.63,23.24-4.12,21.48,3.49-7.92-2.24-7,22.1-.62,3.94.29-.92,1.23-1.76,1.09-2.74-.82-.52-1.68,3.86-2.25,4.8h0s0,0,0,.05a0,0,0,0,0,0,0c-.06.16-.14.31-.2.47l0-.05a10.66,10.66,0,0,1-1.4,2.28l0,0c-.48.51-.79,1.47-1.57,1.54,0-1.5-.89-3,.36-4.28h0c1.71-2.79-1.66-5.53,4.28-5.45,3.65-2-2-4.72-4.33-4.94-30.27-2.08-44.44,3.59-50.82,35.38a.2.2,0,0,1,0-.07c-7.28,19.52,3.57,56.74-12.88,67.08l0,0c-6.34,4.24-14.58,2.62-21.79,3.85h.12c-14.63,1.19-27.67,7.73-39.67,15.75-10.58,2.92-25.12,3.48-28.89,16a0,0,0,0,0,0,0,1,1,0,0,0,0,.1v0c-.21.51-.45,1-.67,1.51Z"/><path class="cls-3" d="M1303.26,142.86c-7.7,24.59-7.14,41.44,22.4,42.75a80.92,80.92,0,0,0,21.59,4.21h0c.77.11,1.54.25,2.32.35h-.1c25,1,3.12-25.73-5.17-33.44l0,.06c-2.34-2.16-13.7-23.06-11.12-8.89,1.13.86-.07-1.79,0-2.28-.4-7.5,8.84,10.5,10.53,11.31l0-.06c.16.22.33.43.5.65l0,0,0,.06h0c7.39,7,28,31,6.72,32.09h.1a274.64,274.64,0,0,1-43.84-9h0c-12.62-4-6-37.8,1.07-45.5,6.37-6,15.43-6.75,23.52-8.75,6.08-2.19,10.89-7,16.87-9.42h0a77.7,77.7,0,0,1,26.75-6.79c6.64-.74,14.25.25,19.74-4.24l-.08.06c22-15.34-6.54-102.22,46-101.68h0c4.13,1.63,23.24-4.12,21.48,3.49-7.92-2.24-7,22.1-.62,3.94.29-.92,1.23-1.76,1.09-2.74-.82-.52-1.68,3.86-2.25,4.8h0s0,0,0,.05a0,0,0,0,0,0,0c-.06.16-.14.31-.2.47l0-.05a10.66,10.66,0,0,1-1.4,2.28l0,0c-.48.51-.79,1.47-1.57,1.54,0-1.5-.89-3,.36-4.28h0c1.71-2.79-1.66-5.53,4.28-5.45,3.65-2-2-4.72-4.33-4.94-30.27-2.08-44.44,3.59-50.82,35.38a.2.2,0,0,1,0-.07c-7.28,19.52,3.57,56.74-12.88,67.08l0,0c-6.34,4.24-14.58,2.62-21.79,3.85h.12c-14.63,1.19-27.67,7.73-39.67,15.75-10.58,2.92-25.12,3.48-28.89,16a0,0,0,0,0,0,0,1,1,0,0,0,0,.1v0C1303.72,141.86,1303.48,142.35,1303.26,142.86Z"/><path class="cls-4" d="M1394.46,105.3h0a0,0,0,0,0,0,0"/><path class="cls-3" d="M1394.46,105.3h0A0,0,0,0,0,1394.46,105.3Z"/><path class="cls-4" d="M1407,38.4v0s0,0,0,0"/><path class="cls-3" d="M1407,38.4v0S1407,38.42,1407,38.4Z"/><path class="cls-4" d="M1333.8,174.8l0,0,0,0"/><path class="cls-3" d="M1333.8,174.8l0,0Z"/><path class="cls-4" d="M1321.86,141.68h0"/><path class="cls-3" d="M1321.86,141.68h0Z"/><path class="cls-4" d="M1340.12,159.06l0,0s0,0,0,0"/><path class="cls-3" d="M1340.12,159.06l0,0S1340.13,159.06,1340.12,159.06Z"/><path class="cls-4" d="M1334.79,174.79l-.08,0,.08,0"/><path class="cls-3" d="M1334.79,174.79l-.08,0Z"/><path class="cls-5" d="M1332.71,173.64c-7.94-3.51-8-5.46-16.89-5.06-11-11.3-2.7-35.38,13.93-22.32,4.24,1.54-5.68-5-7.77-4.21h0c-14.72-1-14.08,18.69-7,26.8,1.46,1.4,3.14.83,4.73.12,3.91.42,7.35,2.91,10.86,4.57,7.65,4.58,16.7,4.2,14.59-7.05-2.36-6.45-8.11-11.74-11.68-17.21.63,3,3.77,5.79,5.64,8.38l0,0,.33.42h0a.1.1,0,0,1,0,0v0c4.1,4.31,9.64,15.77.63,17.58h.1c-2,.36-3.86-.41-5.63-1.24h0l-.71-.3.09,0c-.41-.17-.81-.35-1.22-.51Z"/><path class="cls-3" d="M1332.71,173.64c-4.28-1.66-8.14-4.73-12.76-5.37-2.43.7-4.11,1.51-5.64-1.32-9.18-13.32.79-32.92,16.38-20.27-9.12-11-24.66-1.15-20,12.41,1.15,5.06,3.14,12.89,9.73,9.91,7.38,1.39,14,9.54,21.84,6.76,9.51-7.87-3.88-18.28-7.94-25.51-3.43-3.82,3.81,6.89,4.79,7.42l0,0,.33.42h0a.1.1,0,0,1,0,0v0c4.1,4.31,9.64,15.77.63,17.58h.1c-2,.36-3.86-.41-5.63-1.24h0l-.71-.3.09,0C1333.52,174,1333.12,173.8,1332.71,173.64Z"/><path class="cls-4" d="M1321.63,141.67h0"/><path class="cls-3" d="M1321.63,141.67h0Z"/><path class="cls-4" d="M1434.44,26.78s0,0,0,0,0,0,0,0"/><path class="cls-3" d="M1434.44,26.78s0,0,0,0S1434.43,26.8,1434.44,26.78Z"/><path class="cls-4" d="M1434.24,27.24v0"/><path class="cls-3" d="M1434.24,27.24v0Z"/><path class="cls-4" d="M1424.42,22s0-.05,0-.06l0,.06"/><path class="cls-3" d="M1424.42,22s0-.05,0-.06Z"/><path class="cls-5" d="M1421.25,31.23c.82-7.64,7.78-16.66,16.09-15.83,3.07.45,4.21-5.51.69-5.12-.29,0-.92,1.05-.33.8.34-1,1.36-.49,1.85.1,1,1.45-.46,4.06-2.27,3.77-28.61,1.25-11,51.49-16.69,70.77h0c1.66,5.16-16.23,58.35-20.66,47.49,0,0,0,0,0,0,.14-5.1-.77-10.72,3.35-14.57h0l.37-.49h0c2.85-3.55,5.83-7.08,7.44-11.4v0c15.38-24.13-7.15-89.47,26.06-93.79.17-1.3-4.51.36-5.42.85h0c-22.59,9.67-10.76,53.83-16.42,74.6a.3.3,0,0,0,0-.1,65.79,65.79,0,0,1-4.85,17.82l0-.09c-2.32,8.23-12.36,13-11.13,22.2.17,2.19-1.33,7.08,1.74,7.47,11.34-11,17.74-34.17,20-49.81h0c2.66-18.21,0-36.5.06-54.74Z"/><path class="cls-3" d="M1421.25,31.23c.82-7.64,7.78-16.66,16.09-15.83,3.07.45,4.21-5.51.69-5.12-.29,0-.92,1.05-.33.8.34-1,1.36-.49,1.85.1,1,1.45-.46,4.06-2.27,3.77-28.61,1.25-11,51.49-16.69,70.77h0c1.66,5.16-16.23,58.35-20.66,47.49,0,0,0,0,0,0,.14-5.1-.77-10.72,3.35-14.57h0l.37-.49h0c2.85-3.55,5.83-7.08,7.44-11.4v0c15.38-24.13-7.15-89.47,26.06-93.79.17-1.3-4.51.36-5.42.85h0c-22.59,9.67-10.76,53.83-16.42,74.6a.3.3,0,0,0,0-.1,65.79,65.79,0,0,1-4.85,17.82l0-.09c-2.32,8.23-12.36,13-11.13,22.2.17,2.19-1.33,7.08,1.74,7.47,11.34-11,17.74-34.17,20-49.81h0C1423.85,67.76,1421.18,49.47,1421.25,31.23Z"/><path class="cls-4" d="M1384.49,128.57c-.45,1.05-.16,2.32-.51,3.42v0c-.54,3.26-6.76,5.65-6.58,5l0,.05c.3-1.3.64-2.6,1-3.9a3.15,3.15,0,0,0,.8,2.39h0l0,.05,0-.05c3.94,3.76,5.36-4.83,4.39-7.44a4.17,4.17,0,0,1,1,.53l0,0m-4.68,6.51h0m-.43-4.45a4.3,4.3,0,0,1,3.4-2.62,9.71,9.71,0,0,1,.13,5.1l0-.11c-.24,2.29-2.41,3.68-3.73,1.25,0,0,0,0,0,0a2.73,2.73,0,0,1-.33-1.62v.08A5.38,5.38,0,0,1,1379.38,130.63Zm3.45-2.4v0m1.85,1.47c.55-1.42,1-2.2-1-2.86-7.28-.73-7,12.32-8,17,.81-1.11.82-2.85,1.21-4.19,5.48,1.25,8-5.49,7.74-10Z"/><path class="cls-3" d="M1384.49,128.57c-.45,1.05-.16,2.32-.51,3.42,0,0-6.75,5.61-6.57,4.92l0,.05c.3-1.3.64-2.6,1-3.9a3.15,3.15,0,0,0,.8,2.39h0l0,.05,0-.05C1383.1,139.2,1384.5,128.55,1384.49,128.57Zm-4.68,6.51Zm-.43-4.45a4.3,4.3,0,0,1,3.4-2.62,9.71,9.71,0,0,1,.13,5.1l0-.11c-.24,2.29-2.41,3.68-3.73,1.25,0,0,0,0,0,0a2.73,2.73,0,0,1-.33-1.62v.08A5.38,5.38,0,0,1,1379.38,130.63Zm3.45-2.4v0Zm1.85,1.47c.55-1.42,1-2.2-1-2.86-7.28-.73-7,12.32-8,17,.81-1.11.82-2.85,1.21-4.19C1382.42,140.91,1385,134.17,1384.68,129.7Z"/><path class="cls-5" d="M1446.2,133.78l0,0Z"/><path class="cls-3" d="M1446.2,133.78l0,0Z"/><path class="cls-4" d="M1440.85,139.33l-.06,0,.06,0"/><path class="cls-3" d="M1440.85,139.33l-.06,0Z"/><path class="cls-4" d="M1437.29,119.46l-.07,0,.07,0"/><path class="cls-3" d="M1437.29,119.46l-.07,0Z"/><polyline class="cls-4" points="1426.72 164.43 1426.72 164.44 1426.72 164.44 1426.72 164.43"/><polygon class="cls-3" points="1426.72 164.43 1426.72 164.44 1426.72 164.44 1426.72 164.43"/><polyline class="cls-4" points="1426.16 161.27 1426.16 161.26 1426.16 161.27"/><path class="cls-3" d="M1426.16,161.27h0Z"/><path class="cls-4" d="M1404.33,158.11l.05,0-.05,0"/><path class="cls-3" d="M1404.33,158.11l.05,0Z"/><path class="cls-4" d="M1426.15,160.47l0,.07,0-.07"/><path class="cls-3" d="M1426.15,160.47l0,.07Z"/><polyline class="cls-4" points="1405.22 158.13 1405.21 158.13 1405.22 158.13"/><path class="cls-3" d="M1405.22,158.13h0Z"/><path class="cls-4" d="M1402.29,174.72l.09-.11-.09.11"/><path class="cls-3" d="M1402.29,174.72l.09-.11Z"/><path class="cls-4" d="M1379.74,195.54l-.2.08.2-.08"/><path class="cls-3" d="M1379.74,195.54l-.2.08Z"/><path class="cls-4" d="M1370.37,197.42h0"/><path class="cls-3" d="M1370.37,197.42h0Z"/><path class="cls-5" d="M1418.43,170c-5.87-3.23-12.55.38-16.32,5.17l.05,0-.1.11,0-.05h0c-7.35,8.26-15.22,16.81-26,20.38l.13-.06a30.17,30.17,0,0,1-7.13,1.66h0c-8.67,1.21-17.82-1-24.4-6.53,4.46,7.38,17.35,8.75,25.84,7.46l-.15,0c16.25-1.85,25.34-16.47,36.62-26.39l-.08.06a10.54,10.54,0,0,1,11.2-1.24.31.31,0,0,0,.31-.54Z"/><path class="cls-3" d="M1418.43,170c-5.87-3.23-12.55.38-16.32,5.17l.05,0-.1.11,0-.05h0c-7.35,8.26-15.22,16.81-26,20.38l.13-.06a30.17,30.17,0,0,1-7.13,1.66h0c-8.67,1.21-17.82-1-24.4-6.53,4.46,7.38,17.35,8.75,25.84,7.46l-.15,0c16.25-1.85,25.34-16.47,36.62-26.39l-.08.06a10.54,10.54,0,0,1,11.2-1.24A.31.31,0,0,0,1418.43,170Z"/><path class="cls-4" d="M1402.32,174.85h0"/><path class="cls-3" d="M1402.32,174.85h0Z"/><path class="cls-4" d="M1368.83,198.59h0"/><path class="cls-3" d="M1368.83,198.59h0Z"/><path class="cls-4" d="M1339.82,193l-.13-.06.13.06"/><path class="cls-3" d="M1339.82,193l-.13-.06Z"/><path class="cls-5" d="M1361.15,211c-.89-8-17.84-18.49-24.59-20.26,8.22,5.87,23,9.94,24.19,22,0,0,0-.05,0-.08,0,21.63,8.71-7,14.4-11.15.67-.51,4-3.88,2.66-4-6.37,6.81-10.23,15.86-15.76,23.14-.57-3.18-.22-6.47-.88-9.66v0h0Z"/><path class="cls-3" d="M1361.15,211c-.89-8-17.84-18.49-24.59-20.26,8.22,5.87,23,9.94,24.19,22,0,0,0-.05,0-.08,0,21.63,8.71-7,14.4-11.15.67-.51,4-3.88,2.66-4-6.37,6.81-10.23,15.86-15.76,23.14-.57-3.18-.22-6.47-.88-9.66v0h0Z"/><path class="cls-4" d="M1361.55,247.31a.36.36,0,0,1,0-.09.36.36,0,0,0,0,.09"/><path class="cls-3" d="M1361.55,247.31a.36.36,0,0,1,0-.09A.36.36,0,0,0,1361.55,247.31Z"/><path class="cls-5" d="M1395.62,316.7c-.67-12.23-10.65-12-15.31-21.14a.14.14,0,0,0,0,.06l0-.12s0,0,0,.05c-1.25-3.35-1.06-7.1-2.69-10.34,0,0,0,0,0,.05s-.11-.27-.17-.4h0c-6.64-12.47-9.32-26.54-15.6-39.24-3.29-7.37,2.08-15.28-.13-22.38.24,12.63-4.85,15.67,2,28.78v0a245,245,0,0,1,8.63,25c2.49,4.7,5.78,9.29,6.22,14.77,0,0,0-.07,0-.11.66,12.46,17.07,12.69,16.21,26.21-.28.07-.56.18-.85.23h0c-5.68,2.32-1.19-4.39-5.42-6.85-4.41-2.05-2.19,4.29-1.34,6.34l-.05-.11c1.23,3-2.61.94-4.12,2.2l.12-.05c-5.45,3-2.95-3.58-6.85-6.26-6-4.09-11.56,1.36-9.69,7.74a46.13,46.13,0,0,1-10.24.16h0c-4.15,0-8-.67-9.22-4.89-1.75,7.77,15.13,6,19.85,5.53,1.43-1.12-.17-3,0-4.41-.27-4.36,5.59-5.76,8.63-3.62,4,2.58,1,10.45,7.91,6.69,9-.55,2.18-3.8,3.13-9,5.71.06.57,9.48,6,8.27,1.49-.64,3.62-1.05,2.93-3.16Z"/><path class="cls-3" d="M1395.62,316.7c-.67-12.23-10.65-12-15.31-21.14a.14.14,0,0,0,0,.06l0-.12s0,0,0,.05c-1.25-3.35-1.06-7.1-2.69-10.34,0,0,0,0,0,.05s-.11-.27-.17-.4h0c-6.64-12.47-9.32-26.54-15.6-39.24-3.29-7.37,2.08-15.28-.13-22.38.24,12.63-4.85,15.67,2,28.78v0a245,245,0,0,1,8.63,25c2.49,4.7,5.78,9.29,6.22,14.77,0,0,0-.07,0-.11.66,12.46,17.07,12.69,16.21,26.21-.28.07-.56.18-.85.23h0c-5.68,2.32-1.19-4.39-5.42-6.85-4.41-2.05-2.19,4.29-1.34,6.34l-.05-.11c1.23,3-2.61.94-4.12,2.2l.12-.05c-5.45,3-2.95-3.58-6.85-6.26-6-4.09-11.56,1.36-9.69,7.74a46.13,46.13,0,0,1-10.24.16h0c-4.15,0-8-.67-9.22-4.89-1.75,7.77,15.13,6,19.85,5.53,1.43-1.12-.17-3,0-4.41-.27-4.36,5.59-5.76,8.63-3.62,4,2.58,1,10.45,7.91,6.69,9-.55,2.18-3.8,3.13-9,5.71.06.57,9.48,6,8.27C1394.18,319.22,1396.31,318.81,1395.62,316.7Z"/><polyline class="cls-4" points="1380.34 295.6 1380.33 295.59 1380.34 295.6"/><path class="cls-3" d="M1380.34,295.6h0Z"/><path class="cls-4" d="M1393,308.19l0,0,0,0"/><path class="cls-3" d="M1393,308.19l0,0Z"/><path class="cls-4" d="M1318.82,248.87l.14.18-.14-.18"/><path class="cls-3" d="M1318.82,248.87l.14.18Z"/><path class="cls-5" d="M1377.1,321.41c-3,.23-6-.08-9,.1,2.45.27,7.1.47,9-.1Z"/><path class="cls-3" d="M1377.1,321.41c-3,.23-6-.08-9,.1C1370.58,321.78,1375.23,322,1377.1,321.41Z"/><path class="cls-5" d="M1389.54,318.3c-.65-.1-.73.77-.4,1.11.61.22.71-.88.4-1.11Z"/><path class="cls-3" d="M1389.54,318.3c-.65-.1-.73.77-.4,1.11C1389.75,319.63,1389.85,318.53,1389.54,318.3Z"/><path class="cls-5" d="M1316.08,233.76c.24.71-1.72,7.61-.72,6.15,3.54-11.13-1.65-19.74-3.06-30.4a0,0,0,0,1,0,0c-.12-.94-.33-1.86-.43-2.8v0c-.67-3.9,0-8.12.56-11.79-3,10.08.92,20.82,3.18,30.7,0,0,0,0,0,0a45.88,45.88,0,0,1,.47,8.11Z"/><path class="cls-3" d="M1316.08,233.76c.24.71-1.72,7.61-.72,6.15,3.54-11.13-1.65-19.74-3.06-30.4a0,0,0,0,1,0,0c-.12-.94-.33-1.86-.43-2.8v0c-.67-3.9,0-8.12.56-11.79-3,10.08.92,20.82,3.18,30.7,0,0,0,0,0,0A45.88,45.88,0,0,1,1316.08,233.76Z"/><polyline class="cls-4" points="1246.84 260.02 1246.84 260.01 1246.84 260.02"/><path class="cls-3" d="M1246.84,260h0Z"/><path class="cls-5" d="M1316.26,242.64c.12-1.21-1.51,1.07-2,1.22a15,15,0,0,1-4.29,2l.07,0c-10.06,1.55-17.84,9.19-28.25,9.76l.15,0c-10.36.81-20.65,1.42-30.57,4.59,7-12.56-.16-11.32-4.26-1.11a.61.61,0,0,0,0-.12c-.06.15-.13.3-.19.46v0c-2.37,5.14-3.41,10.84-.12,15.81a.42.42,0,0,0,0-.1c3.81,6.89,1.31,15.52,4.61,22.2,2.33,4,10.78,13.32,7.87,17.68-1.79-2.29-2.4-10.39-6.78-5.29-.07,6.29.09,9.44-7.55,8.09-2.16-1.85-1.61-5.54-3.69-7.62-5.1-3.2-6.18,2.16-6.3,6.12-1.38,2.63-9,1.08-11.64.6-7.42-1.3-5.7-6.56-4.63-12.13a.06.06,0,0,1,0,0s0-.08,0-.12a0,0,0,0,1,0,0c1.19-6.11-1.24-11.57-3.65-17-.78-5.64-.51-11.55-3.37-16.73h0c-.08-.19-.17-.38-.25-.58l.06.14c-12-23.36-18.07-52.59-10.53-78.13-8,17.57-3.5,43.31,2.15,61.33,0,0,0,0,0,0,2,5.26,3.67,10.62,6.57,15.48l-.06-.14c.1.25.21.5.32.74l-.06-.13c3.87,6.22,2.85,13.46,4.72,20.12a.84.84,0,0,1-.06-.14c.81,2.54,2.69,4.66,3,7.35,0,0,0-.09,0-.13,1,16.64-6.15,21.93,16,21.63h-.07c4.26-.45,1.75-5.34,3.11-7.86,5.13-3.34,5.6,4.29,7.27,7.29,4,2.6,10.91.3,9.35-5.31-.86-2.42,1.4-5.54,3.16-2.45.85,1.2,1.52,7.87,3.62,5.32,3.79-5.48-5.58-15.67-8.44-20.37.66-18.28-11.44-25.32-.8-40.81h0c.82-.82,1.6-2.51,2.91-2.37.31,2.71-2.34,5-3.22,7.45-1.38,5,11.07-1.57,13.78-.93,12.57-1.55,26.16-1,36.8-9,5-2.4,11.39-2.32,15.25-6.84Z"/><path class="cls-3" d="M1316.26,242.64c.12-1.21-1.51,1.07-2,1.22a15,15,0,0,1-4.29,2l.07,0c-10.06,1.55-17.84,9.19-28.25,9.76l.15,0c-10.36.81-20.65,1.42-30.57,4.59,7-12.56-.16-11.32-4.26-1.11a.61.61,0,0,0,0-.12c-.06.15-.13.3-.19.46v0c-2.37,5.14-3.41,10.84-.12,15.81a.42.42,0,0,0,0-.1c3.81,6.89,1.31,15.52,4.61,22.2,2.33,4,10.78,13.32,7.87,17.68-1.79-2.29-2.4-10.39-6.78-5.29-.07,6.29.09,9.44-7.55,8.09-2.16-1.85-1.61-5.54-3.69-7.62-5.1-3.2-6.18,2.16-6.3,6.12-1.38,2.63-9,1.08-11.64.6-7.42-1.3-5.7-6.56-4.63-12.13a.06.06,0,0,1,0,0s0-.08,0-.12a0,0,0,0,1,0,0c1.19-6.11-1.24-11.57-3.65-17-.78-5.64-.51-11.55-3.37-16.73h0c-.08-.19-.17-.38-.25-.58l.06.14c-12-23.36-18.07-52.59-10.53-78.13-8,17.57-3.5,43.31,2.15,61.33,0,0,0,0,0,0,2,5.26,3.67,10.62,6.57,15.48l-.06-.14c.1.25.21.5.32.74l-.06-.13c3.87,6.22,2.85,13.46,4.72,20.12a.84.84,0,0,1-.06-.14c.81,2.54,2.69,4.66,3,7.35,0,0,0-.09,0-.13,1,16.64-6.15,21.93,16,21.63h-.07c4.26-.45,1.75-5.34,3.11-7.86,5.13-3.34,5.6,4.29,7.27,7.29,4,2.6,10.91.3,9.35-5.31-.86-2.42,1.4-5.54,3.16-2.45.85,1.2,1.52,7.87,3.62,5.32,3.79-5.48-5.58-15.67-8.44-20.37.66-18.28-11.44-25.32-.8-40.81h0c.82-.82,1.6-2.51,2.91-2.37.31,2.71-2.34,5-3.22,7.45-1.38,5,11.07-1.57,13.78-.93,12.57-1.55,26.16-1,36.8-9C1306,247.08,1312.4,247.16,1316.26,242.64Z"/><polyline class="cls-4" points="1246.84 260.01 1246.84 260.01 1246.84 260.01"/><path class="cls-4" d="M1236.12,222.14l0,0,0,0"/><path class="cls-3" d="M1236.12,222.14l0,0Z"/><path class="cls-4" d="M1236.1,222.15l.07,0-.07,0"/><path class="cls-3" d="M1236.1,222.15l.07,0Z"/><path class="cls-4" d="M1246.07,232.14h0"/><path class="cls-3" d="M1246.07,232.14h0Z"/><path class="cls-5" d="M1238.2,204.8c-3.29,11.54,7.45,13.63,8.19,25.64,1.35-8.35-8.41-13.77-8.34-21.64a.17.17,0,0,1,0,.07c.09-2.59,1.91-6.65-.2-8.58-1.48.46-1.37,2.22-1.65,3.45-1.16,4.28-4.11,8.42-2.39,13,2.28,4.58,7.58,6.84,10,11.57,0,0,0,0,0,0l0,0h0a20.5,20.5,0,0,1,2.36,5.47c0-2.46-1.76-4.94-3.1-7h0c-1.78-3.44-4.74-5.82-7.5-8.42-3-3.84-1-8.68.65-12.65.9-3.55,2.06-7.44,2-.91Z"/><path class="cls-3" d="M1238.2,204.8c-3.29,11.54,7.45,13.63,8.19,25.64,1.35-8.35-8.41-13.77-8.34-21.64a.17.17,0,0,1,0,.07c.09-2.59,1.91-6.65-.2-8.58-1.48.46-1.37,2.22-1.65,3.45-1.16,4.28-4.11,8.42-2.39,13,2.28,4.58,7.58,6.84,10,11.57,0,0,0,0,0,0l0,0h0a20.5,20.5,0,0,1,2.36,5.47c0-2.46-1.76-4.94-3.1-7h0c-1.78-3.44-4.74-5.82-7.5-8.42-3-3.84-1-8.68.65-12.65C1237.13,202.16,1238.29,198.27,1238.2,204.8Z"/><path class="cls-4" d="M1236.24,222.22l0,0,0,0"/><path class="cls-3" d="M1236.24,222.22l0,0Z"/><path class="cls-5" d="M1270.14,192.18c14.21,11.29,31.93,6.74,20.45-13.43-1-3-.23-6.15-1-9.13-2.74-7.15-11.09-2.16-15.85-.1h0l-1,.43h0l-.07,0h0l-.89.38,0,0a44.26,44.26,0,0,1-11.54,3.52h.06c-4.52,1-9.4-1.14-13.69,1.09-3.14,1.35-7.64,5.64-4.8,9.09,2.36,2.09,5.79,1.24,8.66,1.65,3.26.3,6.18,2,9.46,2.14-.52-.75-3.62-.49-4.89-1.34h0c-3.87-1.81-8.39-.44-12.23-2.06-4.27-2.89.92-8.21,4.28-9.32,9.4-1.32,19.08-.32,27.79-5.47l0,0c13.93-6.68,13.27-2.19,15.39,10.13,7.06,11.57,3.83,21.56-11,17.11-6.71-1.85-10.89-7.38-16.78-10.58h0c-2-.81-4.3-1.86-6.38-1.77,1.22.61,3.12.61,4.5,1.28l0,0,2.34,1,0,0a39.81,39.81,0,0,1,6.68,5l0,0c.2.16.4.32.59.49Z"/><path class="cls-3" d="M1270.14,192.18c14.21,11.29,31.93,6.74,20.45-13.43-1-3-.23-6.15-1-9.13-2.74-7.15-11.09-2.16-15.85-.1h0l-1,.43h0l-.07,0h0l-.89.38,0,0a44.26,44.26,0,0,1-11.54,3.52h.06c-4.52,1-9.4-1.14-13.69,1.09-3.14,1.35-7.64,5.64-4.8,9.09,2.36,2.09,5.79,1.24,8.66,1.65,3.26.3,6.18,2,9.46,2.14-.52-.75-3.62-.49-4.89-1.34h0c-3.87-1.81-8.39-.44-12.23-2.06-4.27-2.89.92-8.21,4.28-9.32,9.4-1.32,19.08-.32,27.79-5.47l0,0c13.93-6.68,13.27-2.19,15.39,10.13,7.06,11.57,3.83,21.56-11,17.11-6.71-1.85-10.89-7.38-16.78-10.58h0c-2-.81-4.3-1.86-6.38-1.77,1.22.61,3.12.61,4.5,1.28l0,0,2.34,1,0,0a39.81,39.81,0,0,1,6.68,5l0,0C1269.75,191.85,1270,192,1270.14,192.18Z"/><path class="cls-4" d="M1279.21,166.74l.1,0-.1,0"/><path class="cls-3" d="M1279.21,166.74l.1,0Z"/><path class="cls-4" d="M1272.88,169.59l-.05,0,.05,0"/><path class="cls-3" d="M1272.88,169.59l-.05,0Z"/><path class="cls-4" d="M1256.09,187l0,0,0,0"/><path class="cls-3" d="M1256.09,187l0,0Z"/><path class="cls-5" d="M1240.94,317.71c-1.31.1-2.7-.09-4,0,.33.28,5,.23,4,0Z"/><path class="cls-3" d="M1240.94,317.71c-1.31.1-2.7-.09-4,0C1237.29,318,1242,317.92,1240.94,317.71Z"/><path class="cls-5" d="M1257,316c-.91.39-2.43,0-3.11.61.07.79,4.51-.11,3.11-.61Z"/><path class="cls-3" d="M1257,316c-.91.39-2.43,0-3.11.61C1254,317.35,1258.4,316.45,1257,316Z"/><path class="cls-5" d="M1216.92,305.31c-32.76,2.69-35.41-6.16-22.14-34.91,17.88-32.72-24.8-50.75.2-81.93l-.1.14c20.12-23.19,46.4-44.65,78.55-45.18,9.51-1.05,21.39,3.25,29.51-2.55-.65-.28-1.45.9-2.21,1l.06,0a20.62,20.62,0,0,1-5.26,1.21,0,0,0,0,0,0,0,62.3,62.3,0,0,1-9.66,0h.06c-40.75-5.33-83.53,23.06-99.76,59.67-5.23,19.17,13.54,33,12.53,51.32-1.29,16-28.84,49.34.27,52.34,4,.17,15.82,2.5,17.94-1.09Z"/><path class="cls-3" d="M1216.92,305.31c-32.76,2.69-35.41-6.16-22.14-34.91,17.88-32.72-24.8-50.75.2-81.93l-.1.14c20.12-23.19,46.4-44.65,78.55-45.18,9.51-1.05,21.39,3.25,29.51-2.55-.65-.28-1.45.9-2.21,1l.06,0a20.62,20.62,0,0,1-5.26,1.21,0,0,0,0,0,0,0,62.3,62.3,0,0,1-9.66,0h.06c-40.75-5.33-83.53,23.06-99.76,59.67-5.23,19.17,13.54,33,12.53,51.32-1.29,16-28.84,49.34.27,52.34C1203,306.57,1214.8,308.9,1216.92,305.31Z"/><path class="cls-4" d="M1192.4,276.68s0,0,0,0v0"/><path class="cls-3" d="M1192.4,276.68s0,0,0,0Z"/><path class="cls-4" d="M1192.35,276.58l0-.07,0,.07"/><path class="cls-3" d="M1192.35,276.58l0-.07Z"/><path class="cls-5" d="M1296.09,142.67h0Z"/><path class="cls-3" d="M1296.09,142.67h0Z"/><path class="cls-4" d="M1287.28,143.34h0"/><path class="cls-3" d="M1287.28,143.34h0Z"/><path class="cls-4" d="M1192.43,276.59a.3.3,0,0,0,0,.08.2.2,0,0,1,0-.08"/><path class="cls-3" d="M1192.43,276.59a.3.3,0,0,0,0,.08A.2.2,0,0,1,1192.43,276.59Z"/><path class="cls-5" d="M1201.56,292.32a11.25,11.25,0,0,1-1.89,4.48l0-.05c-3.79,4.52,2.78,2.22,5.07,2.38,1.22-.11,3,.64,3.94-.24-17,.4-5.81,1.74-6.9-10.22a.09.09,0,0,0,0,.05s0-.05,0-.07v0c-.76-2.66.81-7.36,4-4.54h0l0,0h0c3.38,3,3,9.58,4.82,12.51-.63-10-10.41-23-9.08-4.33Z"/><path class="cls-3" d="M1201.56,292.32a11.25,11.25,0,0,1-1.89,4.48l0-.05c-3.79,4.52,2.78,2.22,5.07,2.38,1.22-.11,3,.64,3.94-.24-17,.4-5.81,1.74-6.9-10.22a.09.09,0,0,0,0,.05s0-.05,0-.07v0c-.76-2.66.81-7.36,4-4.54h0l0,0h0c3.38,3,3,9.58,4.82,12.51C1210,286.68,1200.23,273.64,1201.56,292.32Z"/><path class="cls-4" d="M1206.22,283.47h0"/><path class="cls-3" d="M1206.22,283.47h0Z"/><path class="cls-4" d="M1202.12,299h0"/><polygon class="cls-6" points="1202.33 299.93 1202.12 298.95 1201.96 297.96 1202.02 297.95 1202.35 299.93 1202.3 299.69 1202.33 299.93"/><path class="cls-4" d="M1194.34,198.9l0-.06,0,.06"/><polygon class="cls-6" points="1195.2 199.41 1194.01 198.75 1193.42 198.51 1193.64 198.59 1193.43 198.49 1193.72 198.6 1193.45 198.45 1194.07 198.74 1194.05 198.73 1195.3 199.21 1195.24 199.35 1195.23 199.34 1195.2 199.41"/><path class="cls-4" d="M1194.37,198.83s0,0,0,0,0,0,0,0"/><polygon class="cls-6" points="1195.26 199.3 1194.62 198.97 1193.36 198.86 1193.36 198.62 1193.48 198.38 1194.21 198.76 1194.86 198.85 1195.36 198.86 1194.92 198.86 1195.37 198.92 1195.35 199.12 1195.26 199.3"/><path class="cls-4" d="M1194.61,198.8h0"/><polygon class="cls-6" points="1195.56 199.12 1194.6 198.8 1193.61 198.79 1194.58 198.79 1193.66 198.49 1194.6 198.79 1195.61 198.79 1195.56 199.12"/><path class="cls-4" d="M1192.83,206.53h0m1.63,15.21c1.88,4-1.83-6.13-1.38-7.44a.13.13,0,0,1,0,.06,32.94,32.94,0,0,1,2-17.11c-.7-.11-.86,1.44-1.17,2a.64.64,0,0,1,0-.07c-2.36,7-1.93,14.72.15,21.74l0-.05c.1.31.25.59.37.89Z"/><path class="cls-6" d="M1194.93,223.69c-.66,0-1-.75-1.37-1.53l-.14-.29c-.1-.24-.2-.47-.28-.72h0a41.48,41.48,0,0,1-1.74-13.62h-.34l.37-.62c0-.57.09-1.14.16-1.72l-1.34,2.28,2.46-7.7.3-.93.43.12s0,0,0,0l-.37-.22a4.7,4.7,0,0,0,.17-.5c.23-.71.68-2.17,2-2l1.23.19-.46,1.16a33.35,33.35,0,0,0-2.21,9.37l0,.55a28.85,28.85,0,0,0,0,3.6l.33,3.23-.38,0s0,.09,0,.13l.3.11a35.19,35.19,0,0,0,1.31,5.34c.8,2.78,1,3.28,0,3.64A1.29,1.29,0,0,1,1194.93,223.69Z"/><path class="cls-4" d="M1194.4,198.73h0s0,.05,0,.08l0-.07"/><polygon class="cls-6" points="1195.26 199.26 1194.2 198.73 1193.4 198.73 1193.4 198.45 1193.55 198.2 1193.93 198.44 1194.56 198.73 1195.4 198.73 1195.4 198.95 1195.26 199.26"/><path class="cls-4" d="M1194.36,198.75v0"/><path class="cls-6" d="M1190.65,201l2.79-2.85,5-3.75-3.12,4.68-.06.39Zm3.7-2.3-.31-.93Z"/><path class="cls-4" d="M1194.61,221.24s0,0,0-.05,0,0,0,.05"/><polygon class="cls-6" points="1193.7 221.65 1193.64 221.47 1194.66 221.16 1195.51 220.79 1195.55 220.88 1195.43 220.93 1195.55 220.9 1195.22 221.01 1195.55 220.91 1195.22 221.01 1193.68 221.59 1194.61 221.24 1193.7 221.65"/><path class="cls-4" d="M1339.09,312h0"/><polygon class="cls-6" points="1339.16 312.98 1338.96 312.97 1339.13 310.98 1339.28 310.99 1339.25 311.19 1339.16 312.98"/><path class="cls-5" d="M1345.84,311.24c-2.16,1-4.62.49-6.89.75h.13c-14.8-.14-14.44-2.18-13.1-16-1-10.94-2.72-21.48-1.14-32.52v.07a5.87,5.87,0,0,1,.39-1.42c4.78,9.61,9,19.51,14.47,28.75,3.09,6.65,9.52,12.81,6.74,20.64a.39.39,0,0,0-.59-.32Zm.57.48c-.53,1.63.55,4.68.57,1.11,2-7.33-.45-11.88-4.26-18-9.17-15.73-15.28-33.11-25.31-48.28-.29-.75-.7-3.21-1.55-1.48.09,2.86,2.2,5,3.92,7.08,0,0,0,0,0,0l0,0h0c6.64,8,4,18,3,27.66,1,5.78,2.49,11.64,2,17.56-1.78,13.61.4,15.49,13.94,15.57l-.13,0c2.24,0,4.63.26,6.8-.52h0c.39-.17.89-.31,1.1-.7Z"/><path class="cls-6" d="M1345.37,317.54l0-3.44a4.23,4.23,0,0,1-.11-.62,16.91,16.91,0,0,1-5.23.47l-1.42,0v0c-7,0-11.29-.56-13.56-3.16s-2.23-7-1.36-13.54c.43-4.74-.5-9.6-1.4-14.3-.19-1-.38-2-.55-3l0-.14,0-.13c.15-1.52.34-3,.54-4.55,1-8.18,2-15.91-3.27-22.33l-.09-.1-.5-.61c-1.64-1.93-3.49-4.12-3.58-7v-.25l.11-.23c.4-.82.91-1.23,1.56-1.16,1,.09,1.37,1.23,1.67,2.24a3.72,3.72,0,0,0,.11.38c5.66,8.59,10.15,18,14.48,27.11,3.35,7,6.82,14.3,10.8,21.13,3.94,6.32,6.39,11.05,4.39,18.63,0,1.34-.17,2.13-.85,2.43a1.06,1.06,0,0,1-1-.06Zm-19.75-52.28c-.93,8.16-.13,16,.72,24.23.22,2.14.44,4.3.63,6.46v.1l0,.53c-.66,6.75-1,10.47.6,12.27s5.27,2.08,11.23,2.15h.08a22.51,22.51,0,0,1,2.45-.1,10.41,10.41,0,0,0,4.09-.55,1.39,1.39,0,0,1,.42-.14c1.23-4.89-1.35-9.13-4.07-13.59a54.62,54.62,0,0,1-2.92-5.22c-3.82-6.39-7-13.19-10.15-19.76C1327.67,269.54,1326.66,267.39,1325.62,265.26Z"/><path class="cls-4" d="M1357.24,271.39s0,0,0-.06v.06"/><polygon class="cls-6" points="1356.24 271.52 1356.4 271.49 1356.24 271.5 1356.59 271.45 1356.24 271.49 1356.69 271.42 1356.24 271.44 1356.69 271.42 1358.22 271.18 1358.23 271.28 1358.23 271.28 1358.23 271.34 1356.24 271.52"/><path class="cls-4" d="M1348.23,255.85s0,0,0,0h0s0,0,0,0"/><path class="cls-6" d="M1349.24,263.34l-2-7.2.92-.27h0l.89-.54.09.21.06.15Zm-1.12-7.43-.82.31Z"/><path class="cls-5" d="M1359.19,288.44c1.41-9.13-2-18.15-4.35-26.87-2-5.18-7.3-8.76-7.85-14.46-.59-1.37-1.14-5.35-3.2-3.33l0,0c-4.79,3.94,1.08,10.07-1.34,5.7h0a5.71,5.71,0,0,1,.28-3.9h0a5,5,0,0,1,1.77-1.92l0,0c1.37-.6,1.21,1.6,1.87,2.33v0a.08.08,0,0,1,0,0s0,0,0,0a18.58,18.58,0,0,0,4.67,10l0,0c5,5.46,5.09,13,7.15,19.62l0,0c1.16,3.5,2.13,10.83.12,13.94-2.48-7.79-3-16.41-5.62-24.18h0l0,0h0c-.78-2.75-2.6-5-3.92-7.44h0c-5.56-11.47-6.64-12.23-.32-.06v0l0,0h0c2.44,4.06,4.75,8.27,5.74,13h0c-.22,4.56,1.2,8.65,2.55,12.93.35,1.27.65,9.39,2.5,4.79Z"/><path class="cls-6" d="M1358,291.78l-.35-1.08c-1-.51-1.31-2.4-1.66-5.27-.07-.61-.16-1.3-.21-1.51l-.28-.88c-1.23-3.87-2.49-7.87-2.31-12.23a34,34,0,0,0-3.43-8.74v.1l-.45-.93c-.47-.85-1-1.67-1.43-2.47h-.29l-.11-.69c-1.43-2.76-2.41-4.69-3.08-6-.73-.56-1.39-1-1.92-1.4l-.48.26-.4-1.1a6.66,6.66,0,0,1,.29-4.58l1.94-5.2v2.88l.31-.14a1.81,1.81,0,0,1,1.5,0,2.74,2.74,0,0,1,1.24,1.88,3.56,3.56,0,0,0,.27.74l-.6.55.75-.34.06.14.32.79-.11.05.77,3.06a17.9,17.9,0,0,0,3.44,5.67h0a18.18,18.18,0,0,1,2.47,3.44,15.1,15.1,0,0,1,1.53,2.44l.07.18c.39,1.45.81,2.9,1.23,4.36,2.13,7.42,4.35,15.1,3.14,22.92l-.06.22c-.24.59-.68,1.71-1.53,2Zm-4.32-26.67a93.45,93.45,0,0,1,2.94,12.51c.51,2.76,1,5.59,1.73,8.34a26.56,26.56,0,0,0-1.12-10.13l-2-6.1.75,1c-.06-.3-.13-.6-.19-.89-.77-3.58-1.51-7-3.15-10a32.94,32.94,0,0,0-3.72-4l.74,1.52h0c.41.79.9,1.57,1.37,2.33a21.53,21.53,0,0,1,2.59,5.19l.07.12Zm-7.09-13.92.36.29a20.07,20.07,0,0,1-1.49-5.08,4.91,4.91,0,0,1-.5-1.22,3.15,3.15,0,0,0-.14-.44,6,6,0,0,0-1,1.07v.05l-.11.16a5.74,5.74,0,0,0-.39,2.31l.28-.44.59,0C1344.61,248,1344.87,248,1346.54,251.19Z"/><path class="cls-4" d="M1359.33,289.34l0,0,0,0"/><path class="cls-6" d="M1355.44,296.65l3-7.81.25.12.39.27-.39-.27,1.56.73-.14.26Zm4.37-7,.39.22Z"/><path class="cls-4" d="M1352.67,265.1h0"/><polygon class="cls-6" points="1355.97 266.1 1351.67 266.09 1351.66 265.09 1352.66 265.09 1352.67 264.09 1353.67 264.09 1353.67 264.56 1355.97 266.1"/><polyline class="cls-4" points="1346.11 245.39 1346.11 245.4 1346.11 245.39 1346.11 245.39"/><polygon class="cls-6" points="1346.11 246.39 1345.11 246.39 1345.11 245.39 1346.11 245.39 1346.11 244.39 1347.11 244.39 1347.11 245.4 1346.11 245.4 1346.11 246.39"/></g></svg>